<svg id="visual" viewBox="0 0 900 600" width="900" height="600" xmlns="http://www.w3.org/2000/svg" xmlns:xlink="http://www.w3.org/1999/xlink" version="1.1"><rect x="0" y="0" width="900" height="600" fill="#001220"></rect><path d="M0 402L21.5 405.7C43 409.3 86 416.7 128.8 422C171.7 427.3 214.3 430.7 257.2 423.3C300 416 343 398 385.8 399.8C428.7 401.7 471.3 423.3 514.2 419C557 414.7 600 384.3 642.8 373.2C685.7 362 728.3 370 771.2 371.5C814 373 857 368 878.5 365.5L900 363L900 601L878.5 601C857 601 814 601 771.2 601C728.3 601 685.7 601 642.8 601C600 601 557 601 514.2 601C471.3 601 428.7 601 385.8 601C343 601 300 601 257.2 601C214.3 601 171.7 601 128.8 601C86 601 43 601 21.5 601L0 601Z" fill="#fa7268"></path><path d="M0 413L21.5 421.3C43 429.7 86 446.3 128.8 444C171.7 441.7 214.3 420.3 257.2 411.5C300 402.7 343 406.3 385.8 412.5C428.7 418.7 471.3 427.3 514.2 436.3C557 445.3 600 454.7 642.8 450.7C685.7 446.7 728.3 429.3 771.2 419.7C814 410 857 408 878.5 407L900 406L900 601L878.5 601C857 601 814 601 771.2 601C728.3 601 685.7 601 642.8 601C600 601 557 601 514.2 601C471.3 601 428.7 601 385.8 601C343 601 300 601 257.2 601C214.3 601 171.7 601 128.8 601C86 601 43 601 21.5 601L0 601Z" fill="#ef5f67"></path><path d="M0 449L21.5 447.3C43 445.7 86 442.3 128.8 441C171.7 439.7 214.3 440.3 257.2 449.2C300 458 343 475 385.8 476.2C428.7 477.3 471.3 462.7 514.2 458.2C557 453.7 600 459.3 642.8 460.8C685.7 462.3 728.3 459.7 771.2 459C814 458.3 857 459.7 878.5 460.3L900 461L900 601L878.5 601C857 601 814 601 771.2 601C728.3 601 685.7 601 642.8 601C600 601 557 601 514.2 601C471.3 601 428.7 601 385.8 601C343 601 300 601 257.2 601C214.3 601 171.7 601 128.8 601C86 601 43 601 21.5 601L0 601Z" fill="#e34c67"></path><path d="M0 510L21.5 508.7C43 507.3 86 504.7 128.8 509C171.7 513.3 214.3 524.7 257.2 524.7C300 524.7 343 513.3 385.8 504.8C428.7 496.3 471.3 490.7 514.2 495.7C557 500.7 600 516.3 642.8 518.2C685.7 520 728.3 508 771.2 499.8C814 491.7 857 487.3 878.5 485.2L900 483L900 601L878.5 601C857 601 814 601 771.2 601C728.3 601 685.7 601 642.8 601C600 601 557 601 514.2 601C471.3 601 428.7 601 385.8 601C343 601 300 601 257.2 601C214.3 601 171.7 601 128.8 601C86 601 43 601 21.5 601L0 601Z" fill="#d53867"></path><path d="M0 532L21.5 533.5C43 535 86 538 128.8 541.5C171.7 545 214.3 549 257.2 547.5C300 546 343 539 385.8 539.7C428.7 540.3 471.3 548.7 514.2 548.7C557 548.7 600 540.3 642.8 538.7C685.7 537 728.3 542 771.2 544.8C814 547.7 857 548.3 878.5 548.7L900 549L900 601L878.5 601C857 601 814 601 771.2 601C728.3 601 685.7 601 642.8 601C600 601 557 601 514.2 601C471.3 601 428.7 601 385.8 601C343 601 300 601 257.2 601C214.3 601 171.7 601 128.8 601C86 601 43 601 21.5 601L0 601Z" fill="#c62368"></path></svg>