<svg id="visual" viewBox="0 0 900 600" width="900" height="600" xmlns="http://www.w3.org/2000/svg" xmlns:xlink="http://www.w3.org/1999/xlink" version="1.1"><rect x="0" y="0" width="900" height="600" fill="#002233"></rect><path d="M0 510L21.5 501.8C43 493.7 86 477.3 128.8 461.7C171.7 446 214.3 431 257.2 428.8C300 426.7 343 437.3 385.8 452.5C428.7 467.7 471.3 487.3 514.2 485.5C557 483.7 600 460.3 642.8 460.8C685.7 461.3 728.3 485.7 771.2 476.3C814 467 857 424 878.5 402.5L900 381L900 601L878.5 601C857 601 814 601 771.2 601C728.3 601 685.7 601 642.8 601C600 601 557 601 514.2 601C471.3 601 428.7 601 385.8 601C343 601 300 601 257.2 601C214.3 601 171.7 601 128.8 601C86 601 43 601 21.5 601L0 601Z" fill="#0066FF" stroke-linecap="round" stroke-linejoin="miter"></path></svg>